<?xml version="1.0" encoding="UTF-8"?><svg id="Layer_1" xmlns="http://www.w3.org/2000/svg" viewBox="0 0 250 64"><defs><style>.cls-1{fill:#FFFFFF;}</style></defs><path class="cls-1" d="m25.4551,19.1838c-1.2011-1.4012-2.4021-2.6023-4.2037-3.403-1.8015-.8007-4.2036-1.2011-7.0061-1.2011-3.2028,0-6.0052.2002-8.4073.6005-2.4021.4004-4.0035.8007-5.4047,1.2011v34.6302h6.0052v-30.2263c.2002,0,.4004-.2002,1.0009-.2002s1.201-.2002,1.8015-.2002,1.4012,0,2.0017-.2002h2.202c1.8016,0,3.2028.2002,4.4038.6005,1.2011.6005,2.202,1.2011,2.8025,2.2019.6005,1.0009,1.201,2.2019,1.4012,3.8033.2002,1.6014.4003,3.403.4003,5.6048v18.8164h6.0052v-20.2176c0-2.4021-.2002-4.604-.6005-6.6057-.4003-2.0017-1.201-3.8033-2.4021-5.2045Z"/><path class="cls-1" d="m51.678,14.3797c-2.0017,0-4.0035.4004-6.0052,1.2011s-3.6032,2.0017-5.2045,3.6031c-1.4012,1.6014-2.6023,3.6032-3.6032,6.0053-1.0008,2.4021-1.4012,4.8042-1.4012,8.007,0,2.8024.4004,5.4047.8007,7.4064.6005,2.4021,1.8016,4.4039,3.2028,6.0052,1.4012,1.8016,3.403,3.0026,5.6049,4.0035,2.4021,1.0009,5.0044,1.4013,8.2071,1.4013,2.4021,0,4.6041-.2002,6.6058-.6005,2.0017-.6005,3.403-1.0009,4.2036-1.4012l-.8007-5.4048c-.6005.4004-1.8016.8007-3.403,1.2011-1.4012.4004-3.403.6005-5.6049.6005-4.0035,0-7.0061-.8007-8.8077-2.8024-1.8015-2.0017-3.0026-4.604-3.2027-8.4073h24.4213v-2.4021c0-6.2054-1.2011-10.8094-3.8033-13.812s-6.4056-4.604-11.2098-4.604Zm-9.0079,14.8129c0-1.2011.4004-1.8016.8007-3.0026.4004-1.2011,1.0009-2.2019,1.8016-3.2028.8007-.8007,1.6014-1.6014,2.8024-2.2019,1.0009-.6005,2.4021-.8007,3.8033-.8007,2.6023,0,4.604,1.0008,6.0053,2.8024,1.6014,1.8016,2.2019,3.6031,2.2019,6.4056h-17.4152Z"/><path class="cls-1" d="m108.9278,48.2091c1.0009,1.2011,2.202,2.2019,3.8033,2.8024,1.6014.6005,3.6032,1.0008,6.0052,1.0008,2.202,0,4.0035-.4003,5.6049-.8007,1.6014-.4003,2.8024-.8007,3.403-1.2011l-1.2011-5.4047c-.4003.2002-1.2011.6005-2.4021,1.0009-1.0009.4003-3.2028.6005-5.2045.6005-1.2011,0-2.0017-.2002-2.8025-.4004-.8007-.2002-1.4012-.8007-2.0017-1.4012-.6005-.8007-1.0008-1.6014-1.2011-2.8024-.2002-1.2011-.4003-2.6023-.4003-4.4039v-16.014h14.0122v-6.0052h-14.2124V3.9706l-6.0052,1.2011v32.0279c0,2.4021.2002,4.604.6005,6.4056.4004,1.8015,1.0009,3.403,2.0017,4.604Z"/><path class="cls-1" d="m159.3718,19.1838h0c-1.0009-1.4012-2.8025-2.6023-4.6041-3.403-2.0017-.8007-3.8033-1.2011-6.6057-1.2011-1.2011,0-2.6023.2002-4.0035.4004-1.2011.2002-2.4021.6005-3.6032,1.0008V1.5685l-6.0052,1.2011v48.6424h5.6049v-29.826c.2002-.2002.4003-.2002,1.0009-.4004.6005-.2002,1.2011-.2002,1.8015-.4003.8007-.2002,1.4012-.4004,2.202-.4004.8007-.2002,2.2019-.2002,2.8024-.2002,1.8015,0,2.6023.2002,3.8033.6005,1.2011.6005,2.202,1.2011,2.8024,2.2019.6005,1.0009,1.2011,2.202,1.4012,3.8033.2002,1.6014.4004,3.403.4004,5.6049v18.8163h6.0052v-20.2176c0-2.4021-.2002-4.604-.6005-6.6057-.4003-2.0017-1.2011-3.8033-2.4021-5.2045Z"/><rect class="cls-1" x="170.5815" y="15.1803" width="6.0053" height="36.0314"/><path class="cls-1" d="m173.7843.3675c-1.2011,0-2.2019.4003-3.0026,1.201-.8007.6005-1.2011,1.8016-1.2011,3.0026s.4003,2.2019,1.2011,3.0026,1.8015,1.201,3.0026,1.201,2.202-.4003,3.0026-1.201c.8007-.6005,1.2011-1.8016,1.2011-3.0026s-.4003-2.2019-1.2011-3.0026-1.8015-1.201-3.0026-1.201Z"/><path class="cls-1" d="m209.4155,19.1838h0c-1.2011-1.4012-2.8024-2.6023-4.604-3.403s-5.2045-1.2011-8.007-1.2011c-3.2028,0-4.4039.2002-6.806.6005-2.4021.4004-4.0035.8007-5.4047,1.2011h-.2002v34.6302h6.0052v-30.2263c.2002,0,.6005-.2002,1.2011-.2002.4004,0,1.0009-.2002,1.6014-.2002.8007,0,1.4012-.2002,2.2019-.2002h1.2011c1.8016,0,4.0035.2002,5.2045.6005,1.2011.6005,2.202,1.2011,2.8024,2.2019.6005,1.0009,1.2011,2.2019,1.4012,3.8033.2002,1.6014.4004,3.403.4004,5.6048v18.8164h6.0052v-20.2176c0-2.4021-.2002-4.604-.6005-6.6057-.4003-2.0017-1.2011-3.8033-2.4021-5.2045Z"/><path class="cls-1" d="m246.2475,46.0072c-1.2011-2.0017-2.8024-3.8033-4.2036-5.6048-1.6014-1.8016-3.0026-3.403-4.6041-5.0044s-3.0026-3.0026-4.4038-4.0035c1.2011-1.2011,2.4021-2.6023,4.0035-3.8033,1.4012-1.4012,2.6023-2.8024,4.0035-4.2036,1.2011-1.4012,2.6023-2.8024,3.8033-4.2037,1.2011-1.4012,2.4021-2.6023,3.403-3.8033h-7.6067c-.8007,1.0008-1.8016,2.2019-3.0026,3.403-1.0008,1.4012-2.4021,2.6023-3.6031,4.0035l-4.0035,4.0035c-1.4012,1.2011-2.4021,2.4021-3.6032,3.6032V1.5685l-6.0052,1.2011v48.4422h6.0052v-17.215c1.4012.8007,2.6023,2.0017,4.0035,3.2028s2.8024,2.6023,4.2037,4.2036c1.4012,1.6014,2.8024,3.2028,4.0035,4.8042,1.4012,1.8015,2.4021,3.403,3.403,5.0043h7.6067c-1.0009-1.6014-2.0017-3.403-3.403-5.2045Z"/><path class="cls-1" d="m139.5545,60.62c-12.4108,1.2011-24.2211.2002-34.0297-8.007-6.6057-5.4047-11.2098-13.0113-16.2141-19.6171l12.4108-17.8155h-6.6057l-9.4082,13.4117c-6.0053-7.2063-12.4108-14.4126-20.2176-19.6171-9.208-6.0052-20.2176-6.2054-30.4265-4.0035-2.4021.4003-5.6048,3.2027-1.201,2.2019,21.6188-4.4039,36.2315,10.6092,48.242,26.423l-12.2106,17.6154h6.6057l9.208-13.0113c1.4012,1.8016,2.8024,3.6032,4.0035,5.4048,5.0044,6.6057,10.2089,12.611,17.8155,16.4143,9.0079,4.4038,19.6171,4.0035,29.2255,3.0026,1.6014-.2002,7.0061-2.8024,2.8024-2.4021Z"/></svg>